# xmcd
#
# Track frame offsets:
#	150
#	21314
#	47568
#	60441
#	77478
#	98065
#	113221
#	123004
#	139409
#	164680
#	174892
#
# Disc length: 2758 seconds
#
# Revision: 0
# Processed by: cddbd v1.5.1PL2 Copyright (c) Steve Scherf et al.
# Submitted via: audiograbber 1.83.01
#
DISCID=860ac40b
DTITLE=Стоян Анкулов и Елица Тодорова - Дръмбой
DYEAR=2004
DGENRE=Ethnic
TTITLE0=Дръмбой
TTITLE1=Раздумка
TTITLE2=Дум-така
TTITLE3=Еуфория
TTITLE4=Сън
TTITLE5=Дивдилиии (с Петър Ралчев)
TTITLE6=Кълвач
TTITLE7=Танц на маковете (с Теодосий Спасов)
TTITLE8=Джунджурия
TTITLE9=Дядо Добри
TTITLE10=Иширет (с Иво Папазов)
EXTD=
EXTT0=
EXTT1=
EXTT2=
EXTT3=
EXTT4=
EXTT5=
EXTT6=
EXTT7=
EXTT8=
EXTT9=
EXTT10=
PLAYORDER=
